<?xml version="1.0" encoding="UTF-8"?>
<svg id="Livello_1" data-name="Livello 1" xmlns="http://www.w3.org/2000/svg" viewBox="0 0 1666.98 522.58">
  <g>
    <path d="M391.81,102.07c10.26,6.48,19.62,13.59,28.07,21.51-10.85-10.22-21.14-17.17-28.07-21.51ZM326.63,79.84c.12,0,.18-.05.23-.1-6.04.13-11.02.23-14.61.29,4.49-.04,10.21.34,14.38-.19ZM240.27,465.42c-.42.12-.82.43-1.23.55,0,0,0,0,0,0,7.05-1.61,17.33-4.06,29.64-7.38-5.21,1.13-10.57,1.82-15.74,3.1-4.25,1.05-8.45,2.53-12.68,3.72ZM236.49,462.15c-1.2-2.15-2.82-4.14-4.1-6.24,1.85,3.01,3.86,5.89,4.1,6.24ZM150.03,79.84c7.61.55,15.39.14,23.05.21-11.81-.23-21.16-.47-25.66-.59,1.12.58,1.3.28,2.61.38ZM124.23,100.11c-21.39,18.43-42.26,37.49-62.93,56.72,20.63-19.2,42.02-37.68,62.93-56.72Z" style="fill: #09465b;"/>
    <path d="M464.98,200.94c-.66-2.84-1.36-6.11-2.25-8.83-2.76-8.41-5.83-16.77-9.87-24.69-.58-1.14-1.17-2.25-1.77-3.36-.53-.98-1.07-1.96-1.62-2.93-.14-.26-.29-.52-.44-.78-.46-.82-.94-1.63-1.43-2.43-.11-.18-.21-.37-.32-.54-.61-1.01-1.23-2.01-1.86-3.01-.02-.04-.04-.07-.06-.1-.64-1-1.28-1.99-1.93-2.97-.03-.04-.06-.08-.08-.12-.61-.91-1.21-1.79-1.82-2.67-.13-.18-.25-.36-.39-.54-.64-.92-1.28-1.81-1.95-2.71-.71-.97-1.44-1.95-2.19-2.9-.57-.74-1.15-1.47-1.72-2.2-.58-.71-1.16-1.43-1.74-2.13-.39-.48-.8-.96-1.2-1.44-.45-.53-.9-1.05-1.35-1.56-.52-.6-1.05-1.19-1.59-1.78-.65-.72-1.3-1.44-1.96-2.15-.66-.7-1.33-1.41-2-2.1-.67-.69-1.36-1.39-2.04-2.07-.6-.6-1.19-1.18-1.8-1.76-.57-.56-1.15-1.1-1.71-1.63-8.45-7.92-17.81-15.03-28.07-21.51-.23-.14-.46-.29-.69-.43-.12-.08-.22-.14-.34-.21-.6-.38-1.16-.72-1.7-1.05-.32-.19-.62-.38-.91-.56-.66-.4-1.34-.81-2.04-1.22-.43-.26-.88-.52-1.33-.78-.33-.19-.65-.38-.98-.57-10.3-5.89-24.27-12.64-41.74-17.85-5.59.14-10.7.26-15.22.36-.05.05-.12.09-.23.1-4.17.53-9.89.15-14.38.19-.24,0-.47,0-.7,0-1.06.02-2.12.04-3.18.06-5.1.09-10.2.16-15.31.21-1.07,0-2.13.03-3.19.04h-.48c-52.98.62-93.25.13-116.32-.31-7.66-.07-15.44.34-23.05-.21-1.31-.1-1.49.2-2.61-.38-9.78,9-17.88,16.08-23.19,20.65-20.9,19.04-42.29,37.53-62.93,56.72-1.58,1.47-5.9,4.72-5.97,6.88-.05,1.56,1.59,4.78,2.38,6.23,4.56,8.38,10.12,16.26,15.06,24.37,53.24,87.17,106.21,174.51,159.61,261.6,1.28,2.1,2.9,4.09,4.1,6.24.02.03.03.04.03.04.84,1.26,1.69,2.51,2.52,3.79.41-.12.81-.43,1.23-.55,4.23-1.18,8.43-2.67,12.68-3.72,5.17-1.28,10.53-1.97,15.74-3.1,38.8-10.47,60.13-16.49,80.75-26.1.67-.32,1.36-.64,2.03-.96.02,0,.04-.02.06-.03.49-.23.98-.47,1.47-.71.51-.25,1.02-.5,1.53-.75.72-.36,1.44-.72,2.17-1.09,40.62-20.76,75.17-55.35,93.56-96.98,4.92-11.12,8.57-21.82,11.56-33.64,4.04-15.96,6.23-30.55,6.52-47.11.28-16.61.43-34.15-3.35-50.29ZM231.03,308.39c-.04,10.76.13,42.37-.68,84.4-.08,4.06-.15,7.39-.2,9.55-15.1-22.74-26.89-41.42-34.76-54.11-9.31-15.03-11.21-18.53-29.77-48.88-9.1-14.88-18.25-29.5-27.25-44.32-11.12-18.33-22.4-36.7-33.6-55.03-2.99-4.9-5.85-9.97-8.9-14.81-.83-1.32-4.57-5.02-1.95-6.15,18.08-.39,36.25-.05,54.35-.15,10.09-.06,20.3-.34,30.41-.39,16.67-.09,33.35-.07,50.02-.08.87.08,2.04.29,2.27,1.28-.03,42.89.19,85.79.06,128.69ZM232.12,151.74c-.1.86-.55,1.41-1.32,1.77l-120.45-.11c-1.19-.55-5.42.33-5.83-1.06-.41-1.42.84-1.89,1.53-2.6,3.28-3.41,6.88-6.57,10.38-9.78,12.84-11.76,25.93-23.42,38.68-35.32.92-.87,1.61-2.35,2.99-2.77,23.61-.48,47.28.16,70.86-.48,1.47-.05,3.16-.05,3.37,1.81.07,12.85,0,25.73-.23,38.55-.06,3.08.36,7.06,0,9.99ZM440.9,286.72c-5.33,22.62-13.6,42.68-25.73,60.65-.57.85-12.26,17.75-28.62,32.34-45.39,40.51-112.71,50.77-130.52,53.1-.34-14.69-.53-26.36-.64-33.16-1.19-80.02-.15-153.94,0-183.88.07-11.78-.14-23.59.09-35.36.46-.92,1.28-1.5,2.28-1.7,17.99-.26,36.04.05,54.01.17,14.6.1,30.57-1.23,44.74,2.22,42.15,10.27,73.33,49.1,86.33,88.93,1.62,4.95-.77,11.7-1.95,16.68ZM444.13,214.95c-1.33.67-5.21-4.65-6.52-6.38-12.12-15.95-52.99-53.11-95.26-54.96-28.12-1.23-56.48.44-84.66-.21-1.45-.14-2.32-.8-2.32-2.33l-.22-47.66c.05-1.56,1.31-2.34,2.78-2.33,24.97.06,50.07-.03,75.08.05,22.84,6,44.99,18.72,63.17,33.65,22.44,18.43,32.72,38.15,34.96,42.33,8.67,16.17,15.37,36.63,12.98,37.83Z" style="fill: #09465b;"/>
  </g>
  <g>
    <path d="M519.48,137.88h63.05c25.7,0,44.86,3,57.45,9,12.6,6,23.89,15.5,33.87,28.48,9.98,12.99,14.97,29.4,14.97,49.23,0,24.95-8.72,45.79-26.16,62.52-17.44,16.73-41.48,25.1-72.12,25.1h-71.06v-174.33ZM567,169.93v109.45h19.93c17.62,0,30.71-5.56,39.26-16.67,8.56-11.11,12.84-24.16,12.84-39.14,0-10.56-2.44-20.33-7.33-29.31-4.88-8.98-10.95-15.28-18.2-18.9-7.25-3.62-15.96-5.43-26.12-5.43h-20.39Z" style="fill: #09465b;"/>
    <path d="M848.15,171.08h-98.36v35.76h77.33v32.82h-77.33v38.06h98.36v34.48h-147.55v-174.33h147.55v33.21Z" style="fill: #09465b;"/>
    <path d="M1030.26,137.88l-56.43,80.95,63.84,93.38h-56.01l-41.44-63.25-41.46,63.25h-45.86l64-92.92-56.74-81.4h56.36l33.46,52.94,35.16-52.94h45.12Z" style="fill: #09465b;"/>
    <path d="M1093.3,307.14v5.06c-2.53.35-4.58.53-6.17.53-1.17,0-2.41-.17-3.73-.52-1.32-.35-3.24-1.62-5.77-3.8-4.5,3.19-9.58,4.78-15.24,4.78s-10.38-1.39-13.89-4.17c-3.51-2.78-5.27-6.13-5.27-10.07,0-3.14,1.24-6.04,3.72-8.7,2.48-2.66,6.14-4.66,10.99-5.99-3.63-4.45-5.45-8.11-5.46-10.97,0-2.72,1.15-5.07,3.46-7.07s5.38-2.99,9.22-2.99,7.09.93,9.58,2.78c2.49,1.85,3.73,4.35,3.73,7.49,0,5.11-3.99,9.26-11.96,12.45l11.99,15.37c3.88-4.16,6.44-9.29,7.69-15.38l6.08,1.09c-1.69,6.92-5.18,12.92-10.46,17.99,1.8,1.65,3.83,2.47,6.08,2.47,1.03,0,2.83-.12,5.42-.35ZM1060.73,287.88c-3.95,1.43-6.67,2.97-8.15,4.62-1.49,1.65-2.23,3.71-2.23,6.19,0,3.39,1.29,5.9,3.86,7.51s5.56,2.42,8.98,2.42c4.33,0,8.07-1.26,11.21-3.79l-13.67-16.95ZM1063.57,282.53c4.49-2.09,7.19-3.77,8.11-5.04s1.38-2.49,1.38-3.67c0-1.67-.71-3.11-2.12-4.32-1.42-1.21-3.22-1.81-5.42-1.81-2,0-3.65.53-4.96,1.6-1.31,1.07-1.96,2.27-1.96,3.61,0,2.07,1.65,5.27,4.97,9.62Z" style="fill: #09465b;"/>
    <path d="M1111.65,137.88h63.05c25.7,0,44.86,3,57.45,9,12.6,6,23.89,15.5,33.87,28.48,9.98,12.99,14.97,29.4,14.97,49.23,0,24.95-8.72,45.79-26.16,62.52-17.44,16.73-41.48,25.1-72.12,25.1h-71.06v-174.33ZM1159.17,169.93v109.45h19.93c17.62,0,30.71-5.56,39.26-16.67,8.56-11.11,12.84-24.16,12.84-39.14,0-10.56-2.44-20.33-7.33-29.31-4.88-8.98-10.95-15.28-18.2-18.9-7.25-3.62-15.96-5.43-26.12-5.43h-20.39Z" style="fill: #09465b;"/>
    <path d="M1387.17,137.88l64.66,174.33h-52l-12.73-35.89h-66.79l-12.95,35.89h-42.43l66.21-174.33h56.02ZM1331.92,244.13h43.77l-21.69-61.17-22.08,61.17Z" style="fill: #09465b;"/>
    <path d="M1525.29,314.89c-27.82,0-49.34-8.81-64.56-26.44-15.22-17.62-22.83-38.95-22.83-63.98s7.71-46.7,23.13-63.73c15.42-17.03,37.4-25.54,65.93-25.54s50.57,9.09,65.24,27.27c14.67,18.18,22,38.97,22,62.39,0,25.29-7.56,46.62-22.68,63.98-15.12,17.37-37.2,26.05-66.23,26.05ZM1526.65,168.53c-25.37,0-38.06,18.82-38.06,56.45s12.69,56.58,38.06,56.58,36.85-18.82,36.85-56.45-12.28-56.58-36.85-56.58Z" style="fill: #09465b;"/>
  </g>
  <g>
    <path d="M520.31,373.83v-35.6h16.32c7.09,0,12.39,1.77,15.92,5.32,3.52,3.55,5.29,7.65,5.29,12.31,0,5.32-1.89,9.65-5.67,12.98-3.78,3.33-8.69,5-14.73,5h-17.12ZM533.26,365.64h3.37c2.14,0,3.95-.88,5.42-2.63,1.47-1.76,2.21-4.15,2.21-7.17,0-2.59-.65-4.83-1.96-6.7-1.31-1.88-3.2-2.82-5.67-2.82h-3.37v19.33Z" style="fill: #09465b;"/>
    <path d="M610.49,338.22v35.6h-12.95v-35.6h12.95Z" style="fill: #09465b;"/>
    <path d="M675.35,373.83l-2.38-7.02h-11.3l-2.53,7.02h-10.51l13.02-35.6h13.69l13.23,35.6h-13.21ZM663.86,359.04h6.83l-3.41-10.33-3.41,10.33Z" style="fill: #09465b;"/>
    <path d="M772.55,338.22v35.6h-12.02v-25.46l-7.8,25.46h-8.22l-8.11-25.46v25.46h-9.7v-35.6h16.92l6.12,18.91,5.84-18.91h16.98Z" style="fill: #09465b;"/>
    <path d="M832.38,374.37c-5.93,0-10.77-1.66-14.51-4.98s-5.61-7.76-5.61-13.33,1.79-9.71,5.36-13.18c3.57-3.47,8.53-5.2,14.88-5.2,5.87,0,10.66,1.63,14.35,4.9,3.7,3.27,5.55,7.63,5.55,13.09s-1.87,10.18-5.59,13.59c-3.73,3.41-8.54,5.11-14.43,5.11ZM832.32,366.29c2.18,0,3.75-.8,4.71-2.41s1.44-4.55,1.44-8.83c0-6.19-1.97-9.29-5.9-9.29-4.25,0-6.37,3.53-6.37,10.59,0,6.62,2.04,9.94,6.12,9.94Z" style="fill: #09465b;"/>
    <path d="M928.18,373.83h-10.54l-11.55-15.73c-1.48-2.02-2.98-4.47-4.49-7.35.68,2.29,1.02,4.24,1.02,5.84v17.24h-10.51v-35.6h12.24l9.83,13.04c1.96,2.59,3.44,4.87,4.45,6.83-.66-3.04-.99-6.16-.99-9.34v-10.54h10.54v35.6Z" style="fill: #09465b;"/>
    <path d="M969.78,373.83v-35.6h16.32c7.09,0,12.39,1.77,15.92,5.32,3.52,3.55,5.28,7.65,5.28,12.31,0,5.32-1.89,9.65-5.67,12.98-3.78,3.33-8.69,5-14.73,5h-17.12ZM982.73,365.64h3.37c2.14,0,3.95-.88,5.42-2.63,1.47-1.76,2.21-4.15,2.21-7.17,0-2.59-.66-4.83-1.96-6.7-1.31-1.88-3.2-2.82-5.67-2.82h-3.37v19.33Z" style="fill: #09465b;"/>
    <path d="M1076.71,346.05l-8.41,2.37c-1.13-2.82-3.53-4.23-7.18-4.23-3.91,0-5.86,1.07-5.86,3.21,0,.85.37,1.57,1.1,2.17s2.38,1.1,4.95,1.54c4.3.73,7.45,1.47,9.44,2.22,2,.75,3.68,1.95,5.05,3.61,1.37,1.66,2.05,3.52,2.05,5.57,0,3.22-1.47,6-4.4,8.34-2.93,2.35-7.28,3.52-13.05,3.52-4.32,0-8-.83-11.04-2.49-3.04-1.66-5.04-4.12-6-7.39l9.15-1.75c1.03,3.32,3.89,4.98,8.57,4.98,2.26,0,3.95-.37,5.06-1.11,1.11-.74,1.67-1.62,1.67-2.65s-.5-1.85-1.51-2.42c-1.01-.57-2.95-1.11-5.83-1.62-5.37-.94-9.2-2.22-11.48-3.85-2.28-1.62-3.42-4-3.42-7.13s1.36-5.83,4.09-8.01c2.73-2.17,6.43-3.26,11.1-3.26,8.27,0,13.59,2.79,15.96,8.37Z" style="fill: #09465b;"/>
    <path d="M1119.6,373.83v-35.6h14.15c5.95,0,10.59,1.71,13.91,5.14,3.32,3.42,4.98,7.62,4.98,12.57s-1.62,9.26-4.85,12.71c-3.24,3.45-7.33,5.18-12.3,5.18h-15.88ZM1124.89,370.04h8.56c4.53,0,7.97-1.32,10.32-3.96,2.35-2.64,3.52-6.13,3.52-10.46,0-3.51-1.12-6.67-3.35-9.47-2.24-2.8-5.73-4.2-10.49-4.2h-8.56v28.09Z" style="fill: #09465b;"/>
    <path d="M1222.08,369.91v3.91h-27.29v-35.6h26.7v3.91h-21.42v11.32h17v3.63h-17v12.83h22Z" style="fill: #09465b;"/>
    <path d="M1289.48,338.22l-11.83,16.3,13.53,19.3h-5.98l-10.64-15.17-11.08,15.17h-4.91l13.51-18.42-12.03-17.18h5.91l9.25,13.16,9.47-13.16h4.8Z" style="fill: #09465b;"/>
    <path d="M1365.47,370.07v3.76c-1.88.26-3.4.39-4.58.39-.87,0-1.79-.13-2.77-.39-.98-.26-2.41-1.2-4.28-2.82-3.34,2.36-7.11,3.55-11.31,3.55s-7.7-1.03-10.3-3.09-3.91-4.55-3.91-7.47c0-2.33.92-4.48,2.76-6.46s4.56-3.46,8.15-4.45c-2.69-3.3-4.04-6.02-4.05-8.14,0-2.02.86-3.76,2.57-5.24,1.71-1.48,3.99-2.22,6.84-2.22s5.26.69,7.1,2.06,2.77,3.23,2.77,5.56c0,3.79-2.96,6.87-8.88,9.24l8.89,11.4c2.88-3.09,4.78-6.89,5.7-11.41l4.51.81c-1.26,5.14-3.84,9.59-7.76,13.35,1.34,1.22,2.84,1.83,4.51,1.83.76,0,2.1-.09,4.02-.26ZM1341.31,355.78c-2.93,1.06-4.94,2.2-6.05,3.42-1.1,1.22-1.65,2.76-1.65,4.6,0,2.52.95,4.38,2.86,5.57,1.91,1.2,4.13,1.8,6.66,1.8,3.22,0,5.99-.94,8.32-2.81l-10.14-12.58ZM1343.41,351.81c3.33-1.55,5.33-2.8,6.02-3.74.68-.94,1.02-1.85,1.02-2.72,0-1.24-.53-2.3-1.58-3.2s-2.39-1.35-4.02-1.35c-1.48,0-2.71.4-3.68,1.19s-1.45,1.68-1.45,2.68c0,1.53,1.23,3.91,3.68,7.14Z" style="fill: #09465b;"/>
    <path d="M1407.28,373.83v-35.6h14.15c5.95,0,10.59,1.71,13.91,5.14,3.32,3.42,4.98,7.62,4.98,12.57s-1.62,9.26-4.85,12.71c-3.24,3.45-7.33,5.18-12.3,5.18h-15.88ZM1412.57,370.04h8.56c4.53,0,7.97-1.32,10.32-3.96,2.35-2.64,3.52-6.13,3.52-10.46,0-3.51-1.12-6.67-3.35-9.47-2.24-2.8-5.73-4.2-10.49-4.2h-8.56v28.09Z" style="fill: #09465b;"/>
    <path d="M1509.62,373.83h-5.4l-4.24-10.41h-15.65l-3.77,10.41h-4.42l13.71-35.6h5.98l13.8,35.6ZM1498.85,360.08l-6.54-17.11-6.53,17.11h13.06Z" style="fill: #09465b;"/>
    <path d="M1562.27,374.56c-5.42,0-9.64-1.78-12.67-5.34-3.03-3.56-4.54-7.92-4.54-13.09s1.59-9.85,4.76-13.36,7.38-5.27,12.61-5.27,9.39,1.73,12.55,5.18,4.73,7.81,4.73,13.06-1.53,9.44-4.59,13.19c-3.06,3.75-7.34,5.62-12.84,5.62ZM1562.39,370.93c3.69,0,6.57-1.42,8.65-4.25,2.08-2.84,3.12-6.49,3.12-10.96s-1.08-8.17-3.23-10.73c-2.15-2.56-5.01-3.84-8.58-3.84s-6.47,1.38-8.59,4.15c-2.12,2.77-3.18,6.39-3.18,10.86s1.07,7.92,3.21,10.66c2.14,2.74,5.01,4.11,8.59,4.11Z" style="fill: #09465b;"/>
  </g>
</svg>