<?xml version="1.0" encoding="UTF-8"?>
<svg id="Livello_1" data-name="Livello 1" xmlns="http://www.w3.org/2000/svg" viewBox="0 0 1776.77 399.48">
  <g>
    <path d="M357.54,44.47c9.34,5.9,17.86,12.37,25.54,19.57-9.87-9.3-19.24-15.63-25.54-19.57ZM298.23,24.25c.11,0,.17-.04.21-.09-5.5.12-10.03.21-13.3.26,4.08-.04,9.29.31,13.09-.18ZM219.63,375.14c-.39.11-.75.39-1.12.5,0,0,0,0,0,0,6.42-1.46,15.77-3.69,26.97-6.71-4.74,1.03-9.62,1.66-14.32,2.82-3.87.96-7.69,2.31-11.54,3.38ZM216.19,372.16c-1.1-1.95-2.57-3.77-3.73-5.68,1.68,2.74,3.51,5.36,3.73,5.68ZM137.51,24.24c6.92.5,14.01.13,20.98.19-10.75-.21-19.26-.43-23.35-.53,1.02.53,1.18.25,2.38.34ZM114.03,42.69c-19.47,16.77-38.45,34.12-57.27,51.62,18.78-17.47,38.24-34.29,57.27-51.62Z" style="fill: #09465b;"/>
    <path d="M424.12,134.45c-.6-2.59-1.24-5.56-2.05-8.04-2.52-7.65-5.3-15.26-8.98-22.47-.53-1.03-1.06-2.05-1.61-3.06-.48-.89-.97-1.79-1.47-2.66-.13-.24-.26-.47-.4-.71-.42-.75-.86-1.48-1.3-2.21-.1-.17-.19-.33-.29-.49-.55-.92-1.12-1.83-1.69-2.73-.02-.04-.04-.06-.05-.09-.58-.91-1.17-1.81-1.75-2.7-.03-.04-.05-.07-.07-.11-.55-.82-1.1-1.63-1.66-2.43-.11-.17-.23-.32-.35-.49-.58-.83-1.17-1.65-1.77-2.46-.65-.89-1.31-1.77-1.99-2.64-.52-.67-1.04-1.34-1.57-2-.53-.65-1.05-1.3-1.59-1.94-.36-.44-.73-.88-1.1-1.31-.41-.48-.82-.96-1.23-1.42-.47-.54-.96-1.09-1.45-1.62-.59-.66-1.18-1.31-1.79-1.95-.6-.64-1.21-1.28-1.82-1.91-.61-.63-1.24-1.26-1.86-1.88-.54-.54-1.09-1.08-1.64-1.6-.52-.51-1.04-1-1.56-1.48-7.69-7.21-16.21-13.67-25.54-19.57-.21-.13-.42-.26-.63-.39-.11-.07-.2-.13-.31-.19-.54-.34-1.05-.66-1.54-.96-.29-.18-.56-.34-.83-.51-.6-.37-1.22-.74-1.86-1.11-.39-.24-.8-.47-1.21-.71-.3-.18-.6-.34-.89-.52-9.37-5.36-22.09-11.5-37.98-16.24-5.08.13-9.74.24-13.85.32-.04.04-.11.08-.21.09-3.8.48-9,.14-13.09.18-.22,0-.43,0-.64,0-.96.02-1.93.04-2.89.05-4.65.08-9.28.15-13.93.19-.97,0-1.94.03-2.9.04h-.44c-48.21.56-84.86.11-105.85-.28-6.97-.06-14.05.31-20.98-.19-1.19-.09-1.36.18-2.38-.34-8.9,8.19-16.27,14.63-21.11,18.79-19.02,17.33-38.49,34.15-57.27,51.62-1.44,1.34-5.37,4.3-5.43,6.26-.04,1.42,1.45,4.35,2.17,5.67,4.15,7.63,9.21,14.8,13.71,22.18,48.45,79.33,96.66,158.81,145.25,238.06,1.17,1.91,2.64,3.73,3.73,5.68.02.03.03.04.03.04.76,1.15,1.53,2.29,2.3,3.44.38-.11.74-.39,1.12-.5,3.85-1.08,7.67-2.43,11.54-3.38,4.71-1.17,9.58-1.8,14.32-2.82,35.31-9.53,54.72-15.01,73.48-23.75.61-.29,1.24-.58,1.85-.88.02,0,.04-.02.05-.03.45-.21.89-.43,1.34-.65.46-.23.93-.46,1.39-.68.66-.32,1.31-.66,1.97-.99,36.96-18.89,68.41-50.37,85.14-88.26,4.48-10.12,7.8-19.85,10.52-30.61,3.67-14.52,5.67-27.8,5.93-42.87.25-15.11.39-31.07-3.05-45.76ZM211.22,232.24c-.04,9.79.12,38.56-.62,76.8-.07,3.69-.14,6.72-.18,8.69-13.74-20.7-24.47-37.69-31.63-49.24-8.48-13.67-10.2-16.86-27.09-44.48-8.28-13.54-16.61-26.85-24.8-40.33-10.12-16.68-20.39-33.4-30.57-50.08-2.72-4.46-5.32-9.07-8.1-13.48-.75-1.2-4.15-4.57-1.77-5.59,16.45-.35,32.98-.04,49.46-.14,9.19-.05,18.48-.31,27.67-.35,15.17-.08,30.35-.06,45.52-.07.79.07,1.86.26,2.07,1.17-.03,39.03.18,78.07.05,117.12ZM212.22,89.67c-.09.78-.5,1.28-1.2,1.61l-109.61-.1c-1.09-.5-4.93.3-5.3-.96-.38-1.29.76-1.72,1.39-2.37,2.99-3.1,6.26-5.98,9.45-8.9,11.68-10.7,23.6-21.31,35.2-32.14.84-.79,1.46-2.14,2.72-2.52,21.48-.44,43.03.15,64.49-.44,1.34-.04,2.88-.04,3.07,1.65.06,11.69,0,23.41-.21,35.08-.05,2.8.32,6.43,0,9.09ZM402.21,212.51c-4.85,20.58-12.38,38.84-23.41,55.2-.52.77-11.16,16.15-26.04,29.43-41.3,36.87-102.57,46.2-118.78,48.32-.31-13.37-.48-23.99-.58-30.18-1.09-72.82-.14-140.09,0-167.34.06-10.72-.13-21.47.08-32.18.42-.84,1.17-1.37,2.08-1.55,16.37-.24,32.8.04,49.15.16,13.29.09,27.82-1.12,40.72,2.02,38.36,9.34,66.73,44.69,78.57,80.93,1.47,4.51-.7,10.65-1.77,15.18ZM405.16,147.2c-1.21.61-4.74-4.23-5.93-5.8-11.03-14.52-48.22-48.33-86.69-50.02-25.59-1.12-51.4.4-77.04-.19-1.32-.13-2.11-.73-2.11-2.12l-.2-43.37c.04-1.42,1.19-2.13,2.53-2.12,22.72.05,45.56-.03,68.33.04,20.78,5.46,40.94,17.04,57.48,30.63,20.42,16.77,29.78,34.72,31.82,38.52,7.89,14.72,13.99,33.34,11.82,34.43Z" style="fill: #09465b;"/>
  </g>
  <g>
    <path d="M597.74,149.05l-38.66,2.12c-.54-19.48-9.21-29.22-26.02-29.22-19.28,0-28.91,15-28.91,45,0,17.33,2.62,29.07,7.86,35.24,5.24,6.17,12.57,9.25,21.97,9.25,15.26,0,24.59-8.7,27.99-26.09l35.78,1.92c-2.31,16.52-9.33,29.07-21.06,37.67-11.73,8.59-26.1,12.89-43.11,12.89-20.85,0-37.8-6.3-50.84-18.91-13.04-12.6-19.56-30.03-19.56-52.28,0-20.83,6.31-37.88,18.93-51.16,12.62-13.28,29.85-19.92,51.71-19.92,37.86,0,59.17,17.83,63.94,53.49Z" style="fill: #09465b;"/>
    <path d="M671.03,237.83c-21.22,0-37.63-6.98-49.24-20.93-11.61-13.95-17.41-30.84-17.41-50.66s5.88-36.97,17.64-50.46c11.76-13.48,28.52-20.22,50.28-20.22s38.57,7.2,49.76,21.59c11.18,14.39,16.78,30.86,16.78,49.39,0,20.02-5.77,36.91-17.3,50.66-11.53,13.75-28.37,20.63-50.51,20.63ZM672.07,121.95c-19.35,0-29.02,14.9-29.02,44.69s9.67,44.79,29.02,44.79,28.1-14.9,28.1-44.69-9.37-44.79-28.1-44.79Z" style="fill: #09465b;"/>
    <path d="M817.63,235.71l-38.87-112.54v112.54h-30.93V97.68h57.47l27.65,82.61,29.09-82.61h57.64v138.02h-37.16v-112.54l-39.63,112.54h-25.26Z" style="fill: #09465b;"/>
    <path d="M1005.74,235.71l-38.87-112.54v112.54h-30.93V97.68h57.47l27.65,82.61,29.09-82.61h57.64v138.02h-37.16v-112.54l-39.63,112.54h-25.26Z" style="fill: #09465b;"/>
    <path d="M1236.59,123.97h-75.02v28.31h58.98v25.99h-58.98v30.13h75.02v27.3h-112.53V97.68h112.53v26.29Z" style="fill: #09465b;"/>
    <path d="M1280.78,181v54.7h-37.16V97.68h69.25c12.77,0,23.02,1.3,30.76,3.89,7.73,2.59,14.14,7.36,19.22,14.3s7.62,14.65,7.62,23.14c0,16.57-9.12,28.46-27.35,35.67l29.08,61.02h-40.78l-24.19-54.7h-26.44ZM1280.78,122.26v35.19h22.62c7.39,0,12.75-.45,16.1-1.36,3.35-.91,6.33-2.93,8.94-6.07,2.62-3.13,3.92-6.72,3.92-10.77s-1.31-7.28-3.92-10.31c-2.62-3.03-5.46-4.9-8.54-5.61-3.08-.71-8.85-1.06-17.31-1.06h-21.81Z" style="fill: #09465b;"/>
    <path d="M1507.79,149.05l-38.66,2.12c-.54-19.48-9.21-29.22-26.02-29.22-19.28,0-28.92,15-28.92,45,0,17.33,2.62,29.07,7.86,35.24s12.57,9.25,21.97,9.25c15.26,0,24.59-8.7,27.99-26.09l35.78,1.92c-2.31,16.52-9.33,29.07-21.06,37.67-11.73,8.59-26.1,12.89-43.11,12.89-20.85,0-37.8-6.3-50.84-18.91-13.04-12.6-19.56-30.03-19.56-52.28,0-20.83,6.31-37.88,18.93-51.16,12.62-13.28,29.85-19.92,51.71-19.92,37.86,0,59.17,17.83,63.94,53.49Z" style="fill: #09465b;"/>
    <path d="M1626.43,123.97h-75.02v28.31h58.98v25.99h-58.98v30.13h75.02v27.3h-112.53V97.68h112.53v26.29Z" style="fill: #09465b;"/>
  </g>
  <g>
    <path d="M472.9,291.78v-32.4h13.65c5.93,0,10.37,1.61,13.32,4.84,2.95,3.23,4.42,6.96,4.42,11.2,0,4.84-1.58,8.78-4.75,11.81-3.16,3.03-7.27,4.55-12.32,4.55h-14.33ZM483.74,284.33h2.82c1.79,0,3.31-.8,4.54-2.4,1.23-1.6,1.85-3.77,1.85-6.53,0-2.36-.55-4.39-1.64-6.1s-2.68-2.56-4.75-2.56h-2.82v17.59Z" style="fill: #09465b;"/>
    <path d="M560.49,259.38v32.4h-10.83v-32.4h10.83Z" style="fill: #09465b;"/>
    <path d="M626.88,291.78l-1.99-6.38h-9.46l-2.12,6.38h-8.8l10.9-32.4h11.46l11.07,32.4h-11.06ZM617.27,278.32h5.71l-2.86-9.4-2.85,9.4Z" style="fill: #09465b;"/>
    <path d="M720.35,259.38v32.4h-10.06v-23.17l-6.53,23.17h-6.88l-6.79-23.17v23.17h-8.12v-32.4h14.16l5.12,17.21,4.89-17.21h14.21Z" style="fill: #09465b;"/>
    <path d="M782.54,292.28c-4.96,0-9.01-1.51-12.14-4.53-3.13-3.02-4.69-7.06-4.69-12.13s1.5-8.84,4.49-12,7.14-4.73,12.45-4.73c4.91,0,8.92,1.49,12.01,4.46,3.09,2.98,4.64,6.95,4.64,11.92s-1.56,9.26-4.68,12.37c-3.12,3.1-7.15,4.65-12.08,4.65ZM782.48,284.92c1.83,0,3.14-.73,3.94-2.2.8-1.46,1.2-4.14,1.2-8.03,0-5.63-1.65-8.45-4.94-8.45-3.55,0-5.33,3.21-5.33,9.64,0,6.03,1.71,9.04,5.12,9.04Z" style="fill: #09465b;"/>
    <path d="M874.83,291.78h-8.82l-9.67-14.31c-1.24-1.84-2.49-4.07-3.75-6.69.57,2.09.85,3.86.85,5.32v15.69h-8.79v-32.4h10.24l8.22,11.87c1.64,2.36,2.88,4.43,3.72,6.22-.55-2.77-.83-5.6-.83-8.5v-9.59h8.82v32.4Z" style="fill: #09465b;"/>
    <path d="M921.76,291.78v-32.4h13.65c5.93,0,10.37,1.61,13.32,4.84,2.95,3.23,4.42,6.96,4.42,11.2,0,4.84-1.58,8.78-4.75,11.81-3.16,3.03-7.27,4.55-12.32,4.55h-14.33ZM932.59,284.33h2.82c1.79,0,3.31-.8,4.54-2.4,1.23-1.6,1.85-3.77,1.85-6.53,0-2.36-.55-4.39-1.64-6.1-1.1-1.71-2.68-2.56-4.75-2.56h-2.82v17.59Z" style="fill: #09465b;"/>
    <path d="M1023.36,266.5l-7.03,2.16c-.95-2.56-2.95-3.85-6.01-3.85-3.27,0-4.9.97-4.9,2.92,0,.78.31,1.43.92,1.97.61.54,1.99,1.01,4.14,1.4,3.6.67,6.23,1.34,7.9,2.02,1.67.68,3.08,1.78,4.22,3.29,1.15,1.51,1.72,3.2,1.72,5.07,0,2.93-1.23,5.46-3.68,7.59-2.46,2.14-6.09,3.2-10.92,3.2-3.62,0-6.7-.76-9.24-2.27-2.54-1.51-4.22-3.75-5.03-6.73l7.66-1.59c.86,3.02,3.25,4.53,7.17,4.53,1.89,0,3.3-.34,4.23-1.01.93-.67,1.39-1.48,1.39-2.41s-.42-1.69-1.27-2.21-2.47-1.01-4.88-1.47c-4.49-.86-7.7-2.02-9.61-3.5-1.91-1.48-2.87-3.64-2.87-6.49s1.14-5.31,3.42-7.29c2.28-1.98,5.38-2.97,9.29-2.97,6.92,0,11.38,2.54,13.36,7.62Z" style="fill: #09465b;"/>
    <path d="M1092.53,280.89l4.03.83c-1.93,7.15-6.29,10.73-13.08,10.73-4.47,0-7.97-1.65-10.51-4.96-2.54-3.31-3.81-7.38-3.81-12.21s1.33-8.99,3.98-12.02c2.65-3.02,6.21-4.54,10.68-4.54,6.62,0,10.87,3.47,12.75,10.42l-4.16.76c-1.52-5.16-4.39-7.74-8.61-7.74-3.12,0-5.54,1.2-7.25,3.6-1.72,2.4-2.57,5.76-2.57,10.1,0,3.97.88,7.16,2.64,9.55,1.76,2.4,4.09,3.6,6.98,3.6,4.5,0,7.48-2.71,8.95-8.12Z" style="fill: #09465b;"/>
    <path d="M1155.01,292.45c-4.53,0-8.07-1.62-10.6-4.86s-3.8-7.21-3.8-11.91,1.33-8.96,3.98-12.16c2.65-3.2,6.17-4.8,10.55-4.8s7.86,1.57,10.5,4.71c2.64,3.14,3.96,7.11,3.96,11.89s-1.28,8.59-3.84,12.01c-2.56,3.41-6.14,5.12-10.74,5.12ZM1155.11,289.15c3.09,0,5.5-1.29,7.24-3.87,1.74-2.58,2.61-5.91,2.61-9.98s-.9-7.44-2.7-9.76c-1.8-2.33-4.19-3.49-7.18-3.49s-5.41,1.26-7.19,3.78-2.66,5.81-2.66,9.88.9,7.21,2.69,9.7c1.79,2.49,4.19,3.74,7.19,3.74Z" style="fill: #09465b;"/>
    <path d="M1251.1,291.78h-4.29v-28.29l-11.46,28.29h-3l-11.58-28.29v28.29h-3.75v-32.4h6.55l10.66,25.91,10.41-25.91h6.46v32.4Z" style="fill: #09465b;"/>
    <path d="M1334.78,291.78h-4.29v-28.29l-11.46,28.29h-3l-11.58-28.29v28.29h-3.75v-32.4h6.55l10.66,25.91,10.41-25.91h6.46v32.4Z" style="fill: #09465b;"/>
    <path d="M1407.21,288.22v3.56h-22.83v-32.4h22.34v3.56h-17.92v10.3h14.22v3.3h-14.22v11.68h18.41Z" style="fill: #09465b;"/>
    <path d="M1479.56,291.78h-4.63l-6.51-14.03h-10.11v14.03h-4.14v-32.4h13.91c3.78,0,6.57.95,8.39,2.84,1.82,1.89,2.73,3.96,2.73,6.21,0,1.73-.51,3.38-1.53,4.96-1.02,1.58-2.7,2.71-5.04,3.39l6.93,15ZM1458.31,274.46h9.23c2.43,0,4.25-.59,5.44-1.77s1.8-2.62,1.8-4.33-.63-3.04-1.9-3.99c-1.27-.95-2.87-1.42-4.8-1.42h-9.77v11.51Z" style="fill: #09465b;"/>
    <path d="M1547.91,280.89l4.03.83c-1.93,7.15-6.29,10.73-13.08,10.73-4.47,0-7.97-1.65-10.51-4.96-2.54-3.31-3.81-7.38-3.81-12.21s1.33-8.99,3.98-12.02c2.65-3.02,6.21-4.54,10.68-4.54,6.62,0,10.87,3.47,12.75,10.42l-4.16.76c-1.52-5.16-4.39-7.74-8.61-7.74-3.12,0-5.54,1.2-7.25,3.6-1.72,2.4-2.57,5.76-2.57,10.1,0,3.97.88,7.16,2.64,9.55,1.76,2.4,4.09,3.6,6.98,3.6,4.5,0,7.48-2.71,8.95-8.12Z" style="fill: #09465b;"/>
    <path d="M1621.04,288.22v3.56h-22.83v-32.4h22.34v3.56h-17.92v10.3h14.22v3.3h-14.22v11.68h18.41Z" style="fill: #09465b;"/>
  </g>
</svg>