<?xml version="1.0" encoding="UTF-8"?>
<svg id="Livello_1" data-name="Livello 1" xmlns="http://www.w3.org/2000/svg" viewBox="0 0 1242.58 408.77">
  <g>
    <path d="M350.82,61.93c8.96,5.66,17.13,11.87,24.5,18.78-9.47-8.92-18.46-14.99-24.5-18.78ZM293.92,42.53c.1,0,.16-.04.2-.08-5.27.12-9.62.2-12.76.25,3.92-.03,8.91.29,12.55-.17ZM218.52,379.16c-.37.1-.71.38-1.08.48,0,0,0,0,0,0,6.16-1.4,15.13-3.54,25.88-6.44-4.55.98-9.22,1.59-13.74,2.71-3.71.92-7.37,2.21-11.07,3.25ZM215.21,376.3c-1.05-1.88-2.46-3.62-3.58-5.45,1.61,2.63,3.37,5.15,3.58,5.45ZM139.73,42.52c6.64.48,13.44.13,20.12.19-10.31-.2-18.48-.41-22.4-.51.98.5,1.14.24,2.28.33ZM117.2,60.22c-18.68,16.09-36.89,32.73-54.94,49.52,18.01-16.76,36.69-32.9,54.94-49.52Z" style="fill: #09465b;"/>
    <path d="M414.7,148.25c-.58-2.48-1.19-5.33-1.97-7.71-2.41-7.34-5.09-14.64-8.62-21.55-.5-.99-1.02-1.97-1.55-2.93-.46-.86-.93-1.72-1.41-2.56-.13-.23-.25-.45-.39-.68-.4-.71-.82-1.42-1.24-2.12-.09-.16-.19-.32-.28-.47-.53-.88-1.08-1.76-1.62-2.62-.02-.03-.03-.06-.05-.08-.56-.87-1.12-1.74-1.68-2.59-.03-.03-.05-.07-.07-.1-.53-.79-1.06-1.56-1.59-2.33-.11-.16-.22-.31-.34-.47-.56-.8-1.12-1.58-1.7-2.36-.62-.85-1.26-1.7-1.91-2.53-.5-.65-1-1.29-1.51-1.92-.5-.62-1.01-1.24-1.52-1.86-.34-.42-.7-.84-1.05-1.25-.4-.46-.78-.92-1.18-1.36-.45-.52-.92-1.04-1.39-1.56-.56-.63-1.14-1.25-1.72-1.88-.58-.61-1.16-1.23-1.75-1.83-.59-.61-1.19-1.21-1.78-1.81-.52-.52-1.04-1.03-1.57-1.54-.5-.49-1-.96-1.5-1.42-7.37-6.91-15.55-13.12-24.5-18.78-.2-.13-.4-.25-.61-.38-.1-.07-.19-.13-.29-.18-.52-.33-1.01-.63-1.48-.92-.28-.17-.54-.33-.8-.49-.58-.35-1.17-.71-1.78-1.07-.38-.23-.77-.45-1.16-.68-.29-.17-.57-.33-.86-.5-8.99-5.15-21.19-11.03-36.44-15.58-4.88.13-9.34.23-13.29.31-.04.04-.1.08-.2.08-3.64.46-8.64.13-12.55.17-.21,0-.41,0-.61,0-.92.02-1.85.03-2.78.05-4.46.08-8.91.14-13.36.18-.93,0-1.86.03-2.78.03h-.42c-46.25.54-81.41.11-101.55-.27-6.69-.06-13.48.29-20.12-.19-1.14-.08-1.3.18-2.28-.33-8.54,7.85-15.61,14.03-20.25,18.03-18.25,16.62-36.92,32.76-54.94,49.52-1.38,1.29-5.15,4.12-5.21,6-.04,1.36,1.39,4.17,2.08,5.44,3.98,7.32,8.84,14.19,13.15,21.28,46.48,76.1,92.73,152.36,139.35,228.38,1.12,1.83,2.53,3.57,3.58,5.45.02.03.03.03.03.03.73,1.1,1.47,2.19,2.2,3.3.36-.1.71-.38,1.08-.48,3.69-1.03,7.36-2.33,11.07-3.25,4.52-1.12,9.19-1.72,13.74-2.71,33.87-9.14,52.5-14.4,70.49-22.79.59-.28,1.19-.55,1.77-.84.02,0,.03-.02.05-.03.43-.2.86-.41,1.29-.62.45-.22.89-.44,1.34-.66.63-.31,1.26-.63,1.89-.95,35.46-18.12,65.63-48.32,81.68-84.67,4.3-9.71,7.48-19.05,10.09-29.36,3.52-13.93,5.44-26.67,5.69-41.13.24-14.5.38-29.81-2.93-43.9ZM210.45,242.07c-.03,9.39.12,36.99-.6,73.68-.07,3.54-.13,6.45-.18,8.33-13.19-19.85-23.48-36.16-30.35-47.24-8.13-13.12-9.79-16.18-25.99-42.68-7.95-12.99-15.94-25.76-23.79-38.69-9.7-16-19.56-32.04-29.33-48.04-2.61-4.28-5.1-8.7-7.77-12.93-.72-1.15-3.99-4.38-1.7-5.37,15.78-.34,31.64-.04,47.45-.13,8.81-.05,17.73-.29,26.55-.34,14.56-.08,29.11-.06,43.67-.07.76.07,1.78.25,1.98,1.12-.03,37.45.17,74.9.05,112.36ZM211.4,105.3c-.08.75-.48,1.23-1.15,1.55l-105.16-.09c-1.04-.48-4.73.29-5.09-.92-.36-1.24.73-1.65,1.34-2.27,2.87-2.98,6-5.74,9.07-8.54,11.21-10.27,22.64-20.44,33.77-30.84.81-.76,1.4-2.05,2.61-2.42,20.61-.42,41.28.14,61.87-.42,1.29-.04,2.76-.04,2.94,1.58.06,11.22,0,22.46-.2,33.65-.05,2.69.31,6.16,0,8.72ZM393.67,223.14c-4.65,19.74-11.87,37.26-22.46,52.95-.5.74-10.7,15.5-24.98,28.24-39.62,35.37-98.4,44.32-113.95,46.36-.29-12.82-.46-23.02-.56-28.95-1.04-69.86-.13-134.4,0-160.54.06-10.28-.13-20.59.08-30.87.4-.81,1.12-1.31,1.99-1.49,15.71-.23,31.47.04,47.15.15,12.75.08,26.69-1.08,39.06,1.94,36.8,8.96,64.02,42.87,75.37,77.64,1.41,4.32-.67,10.22-1.7,14.56ZM396.5,160.49c-1.16.59-4.55-4.06-5.69-5.57-10.58-13.93-46.26-46.37-83.17-47.98-24.55-1.08-49.31.39-73.91-.19-1.27-.13-2.03-.7-2.03-2.04l-.19-41.61c.04-1.36,1.14-2.04,2.43-2.04,21.8.05,43.71-.03,65.55.04,19.94,5.24,39.28,16.35,55.15,29.38,19.59,16.09,28.57,33.31,30.53,36.96,7.57,14.12,13.42,31.98,11.34,33.03Z" style="fill: #09465b;"/>
  </g>
  <g>
    <path d="M527.61,202.97v64.75h-51.05V93.39h84.51c18.85,0,33.27,1.64,43.28,4.92,10,3.28,18.93,9.13,26.78,17.56,7.86,8.43,11.78,18.77,11.78,31.03,0,8.6-2.1,16.99-6.28,25.16-4.19,8.17-10.11,14.6-17.75,19.28-7.65,4.68-15.06,7.79-22.23,9.32-7.17,1.53-18.41,2.3-33.69,2.3h-35.34ZM525.88,171.3h32.67c12.46,0,21.21-2.34,26.23-7.02,5.03-4.68,7.54-10.05,7.54-16.09,0-7.07-2.8-12.69-8.4-16.86-5.6-4.17-14.11-6.26-25.53-6.26h-32.52v46.23Z" style="fill: #09465b;"/>
    <path d="M764.8,93.39l67.12,174.33h-53.98l-13.21-35.89h-69.33l-13.44,35.89h-44.04l68.73-174.33h58.15ZM707.45,199.65h45.43l-22.52-61.17-22.92,61.17Z" style="fill: #09465b;"/>
    <path d="M996.27,93.39l-67.39,100.89v73.43h-50.11v-73.43l-67.39-100.89h58.27l40.88,66.01,40.69-66.01h45.04Z" style="fill: #09465b;"/>
  </g>
  <g>
    <path d="M476.6,329.34v-35.6h16.32c7.09,0,12.39,1.77,15.92,5.32,3.52,3.55,5.28,7.65,5.28,12.31,0,5.32-1.89,9.65-5.67,12.98-3.78,3.33-8.69,4.99-14.73,4.99h-17.12ZM489.55,321.15h3.37c2.14,0,3.95-.88,5.42-2.63,1.47-1.76,2.21-4.15,2.21-7.17,0-2.59-.65-4.83-1.96-6.7-1.31-1.88-3.2-2.82-5.67-2.82h-3.37v19.33Z" style="fill: #09465b;"/>
    <path d="M542.03,293.74v35.6h-12.95v-35.6h12.95Z" style="fill: #09465b;"/>
    <path d="M582.14,329.34l-2.38-7.02h-11.3l-2.53,7.02h-10.51l13.02-35.6h13.69l13.23,35.6h-13.21ZM570.66,314.55h6.83l-3.41-10.33-3.41,10.33Z" style="fill: #09465b;"/>
    <path d="M654.6,293.74v35.6h-12.02v-25.46l-7.8,25.46h-8.22l-8.11-25.46v25.46h-9.7v-35.6h16.92l6.12,18.91,5.84-18.91h16.98Z" style="fill: #09465b;"/>
    <path d="M689.68,329.89c-5.93,0-10.77-1.66-14.51-4.98s-5.61-7.76-5.61-13.33,1.79-9.72,5.36-13.18c3.57-3.47,8.53-5.2,14.88-5.2,5.87,0,10.66,1.63,14.35,4.9,3.7,3.27,5.55,7.63,5.55,13.09s-1.87,10.18-5.59,13.59c-3.73,3.41-8.54,5.11-14.43,5.11ZM689.62,321.8c2.18,0,3.75-.8,4.71-2.41.96-1.61,1.44-4.55,1.44-8.83,0-6.19-1.97-9.29-5.9-9.29-4.25,0-6.37,3.53-6.37,10.59,0,6.62,2.04,9.94,6.12,9.94Z" style="fill: #09465b;"/>
    <path d="M760.73,329.34h-10.54l-11.55-15.73c-1.48-2.02-2.98-4.47-4.49-7.35.68,2.3,1.02,4.24,1.02,5.84v17.24h-10.51v-35.6h12.24l9.83,13.04c1.96,2.59,3.44,4.87,4.45,6.83-.66-3.04-.99-6.16-.99-9.34v-10.54h10.54v35.6Z" style="fill: #09465b;"/>
    <path d="M777.58,329.34v-35.6h16.32c7.09,0,12.39,1.77,15.92,5.32,3.52,3.55,5.28,7.65,5.28,12.31,0,5.32-1.89,9.65-5.67,12.98-3.78,3.33-8.69,4.99-14.73,4.99h-17.12ZM790.53,321.15h3.37c2.14,0,3.95-.88,5.42-2.63,1.47-1.76,2.21-4.15,2.21-7.17,0-2.59-.66-4.83-1.96-6.7-1.31-1.88-3.2-2.82-5.67-2.82h-3.37v19.33Z" style="fill: #09465b;"/>
    <path d="M859.76,301.56l-8.41,2.37c-1.13-2.82-3.53-4.23-7.18-4.23-3.91,0-5.86,1.07-5.86,3.21,0,.85.37,1.57,1.1,2.16.73.59,2.38,1.1,4.95,1.54,4.3.73,7.45,1.47,9.44,2.22,2,.75,3.68,1.95,5.05,3.61,1.37,1.66,2.05,3.52,2.05,5.57,0,3.22-1.47,6-4.4,8.34-2.93,2.35-7.28,3.52-13.05,3.52-4.32,0-8-.83-11.04-2.49s-5.04-4.12-6-7.39l9.15-1.75c1.03,3.32,3.89,4.98,8.57,4.98,2.26,0,3.95-.37,5.06-1.11,1.11-.74,1.67-1.62,1.67-2.65s-.5-1.85-1.51-2.43c-1.01-.57-2.95-1.11-5.83-1.62-5.37-.94-9.2-2.22-11.48-3.85s-3.42-4-3.42-7.13,1.36-5.83,4.09-8.01c2.73-2.17,6.43-3.26,11.1-3.26,8.27,0,13.59,2.79,15.96,8.37Z" style="fill: #09465b;"/>
    <path d="M883.2,329.34h-5.29v-35.6h14.96c4.68,0,8.13,1.07,10.35,3.22,2.22,2.15,3.34,4.59,3.34,7.34,0,3.06-1.21,5.59-3.63,7.59s-5.59,3-9.5,3h-10.23v14.45ZM883.2,311.19h9.7c2.49,0,4.5-.63,6.03-1.89,1.52-1.26,2.29-2.93,2.29-4.99,0-1.77-.68-3.36-2.04-4.75-1.36-1.39-3.33-2.09-5.9-2.09h-10.08v13.72Z" style="fill: #09465b;"/>
    <path d="M948.66,329.34h-5.4l-4.24-10.41h-15.65l-3.77,10.41h-4.42l13.71-35.6h5.98l13.8,35.6ZM937.9,315.6l-6.54-17.11-6.53,17.11h13.06Z" style="fill: #09465b;"/>
    <path d="M987.48,293.74l-14.12,20.63v14.97h-5.29v-14.97l-14.12-20.63h6.25l11.2,16.36,11.27-16.36h4.82Z" style="fill: #09465b;"/>
  </g>
  <g>
    <path d="M1146.63,85.46c-10.54-10.1-27-2.96-26.96,10.85.02,6.31,16.02,34.04,19.28,44.13,14.17,43.73,11.05,89.14-5.41,131.58-4.52,11.66-27.6,42.6.08,44.35,13.99.88,19.41-12.76,24.72-23.96,27.15-57.23,27.3-123.81,2.13-181.73-2.53-5.82-9.86-21.4-13.84-25.22ZM1074.67,110.36c-7.56,1.53-12.98,9.75-12.17,17.34.53,4.98,13.22,25.36,15.97,34.86,7.68,26.5,7.12,53.89-2.22,79.99-2.94,8.23-13.87,22.76-13.65,30.33.47,16.48,19.61,18.77,29.59,6.53,23.08-28.29,26-84.5,17.67-118.53-3.59-14.69-16.26-54.35-35.19-50.52ZM1021.6,137.68c-9.8,1.48-15.45,12.52-12.26,21.84,6.98,20.43,15.5,20.45,12.93,48.43-1.6,17.44-23.37,36.48-8.77,48.52,22.2,18.3,38.68-31.55,40.25-46.76,1.77-17.14-7.44-75.77-32.15-72.03Z" style="fill: #09465b;"/>
    <path d="M1146.63,85.46c3.98,3.81,11.31,19.4,13.84,25.22,25.18,57.92,25.03,124.51-2.13,181.73-5.31,11.19-10.73,24.84-24.72,23.96-27.68-1.75-4.6-32.69-.08-44.35,16.46-42.44,19.58-87.85,5.41-131.58-3.27-10.08-19.27-37.82-19.28-44.13-.04-13.81,16.42-20.95,26.96-10.85Z" style="fill: #09465b;"/>
    <path d="M1074.67,110.36c18.93-3.83,31.6,35.83,35.19,50.52,8.32,34.03,5.4,90.24-17.67,118.53-9.98,12.24-29.12,9.95-29.59-6.53-.22-7.57,10.71-22.11,13.65-30.33,9.34-26.09,9.9-53.49,2.22-79.99-2.75-9.5-15.44-29.88-15.97-34.86-.81-7.58,4.61-15.81,12.17-17.34Z" style="fill: #09465b;"/>
    <path d="M1021.6,137.68c24.71-3.74,33.92,54.89,32.15,72.03-1.57,15.21-18.05,65.05-40.25,46.76-14.6-12.03,7.17-31.08,8.77-48.52,2.57-27.98-5.95-28-12.93-48.43-3.18-9.32,2.46-20.35,12.26-21.84Z" style="fill: #09465b;"/>
  </g>
</svg>