<?xml version="1.0" encoding="UTF-8"?>
<svg id="Livello_1" data-name="Livello 1" xmlns="http://www.w3.org/2000/svg" viewBox="0 0 1774.42 527.23">
  <g>
    <path d="M363.71,92.99c10.26,6.48,19.62,13.59,28.07,21.51-10.85-10.22-21.14-17.17-28.07-21.51ZM298.53,70.77c.12,0,.18-.05.23-.1-6.04.13-11.02.23-14.61.29,4.49-.04,10.21.34,14.38-.19ZM212.16,456.35c-.42.12-.82.43-1.23.55,0,0,0,0,0,0,7.05-1.61,17.33-4.06,29.64-7.38-5.21,1.13-10.57,1.82-15.74,3.1-4.25,1.05-8.45,2.53-12.68,3.72ZM208.38,453.07c-1.2-2.15-2.82-4.14-4.1-6.24,1.85,3.01,3.86,5.89,4.1,6.24ZM121.92,70.76c7.61.55,15.39.14,23.05.21-11.81-.23-21.16-.47-25.66-.59,1.12.58,1.3.28,2.61.38ZM96.12,91.04c-21.39,18.43-42.26,37.49-62.93,56.72,20.63-19.2,42.02-37.68,62.93-56.72Z" style="fill: #09465b;"/>
    <path d="M436.87,191.86c-.66-2.84-1.36-6.11-2.25-8.83-2.76-8.41-5.83-16.77-9.87-24.69-.58-1.14-1.17-2.25-1.77-3.36-.53-.98-1.07-1.96-1.62-2.93-.14-.26-.29-.52-.44-.78-.46-.82-.94-1.63-1.43-2.43-.11-.18-.21-.37-.32-.54-.61-1.01-1.23-2.01-1.86-3.01-.02-.04-.04-.07-.06-.1-.64-1-1.28-1.99-1.93-2.97-.03-.04-.06-.08-.08-.12-.61-.91-1.21-1.79-1.82-2.67-.13-.18-.25-.36-.39-.54-.64-.92-1.28-1.81-1.95-2.71-.71-.97-1.44-1.95-2.19-2.9-.57-.74-1.15-1.47-1.72-2.2-.58-.71-1.16-1.43-1.74-2.13-.39-.48-.8-.96-1.2-1.44-.45-.53-.9-1.05-1.35-1.56-.52-.6-1.05-1.19-1.59-1.78-.65-.72-1.3-1.44-1.96-2.15-.66-.7-1.33-1.41-2-2.1-.67-.69-1.36-1.39-2.04-2.07-.6-.6-1.19-1.18-1.8-1.76-.57-.56-1.15-1.1-1.71-1.63-8.45-7.92-17.81-15.03-28.07-21.51-.23-.14-.46-.29-.69-.43-.12-.08-.22-.14-.34-.21-.6-.38-1.16-.72-1.7-1.05-.32-.19-.62-.38-.91-.56-.66-.4-1.34-.81-2.04-1.22-.43-.26-.88-.52-1.33-.78-.33-.19-.65-.38-.98-.57-10.3-5.89-24.27-12.64-41.74-17.85-5.59.14-10.7.26-15.22.36-.05.05-.12.09-.23.1-4.17.53-9.89.15-14.38.19-.24,0-.47,0-.7,0-1.06.02-2.12.04-3.18.06-5.1.09-10.2.16-15.31.21-1.07,0-2.13.03-3.19.04h-.48c-52.98.62-93.25.13-116.32-.31-7.66-.07-15.44.34-23.05-.21-1.31-.1-1.49.2-2.61-.38-9.78,9-17.88,16.08-23.19,20.65-20.9,19.04-42.29,37.53-62.93,56.72-1.58,1.47-5.9,4.72-5.97,6.88-.05,1.56,1.59,4.78,2.38,6.23,4.56,8.38,10.12,16.26,15.06,24.37,53.24,87.17,106.21,174.51,159.61,261.6,1.28,2.1,2.9,4.09,4.1,6.24.02.03.03.04.03.04.84,1.26,1.69,2.51,2.52,3.79.41-.12.81-.43,1.23-.55,4.23-1.18,8.43-2.67,12.68-3.72,5.17-1.28,10.53-1.97,15.74-3.1,38.8-10.47,60.13-16.49,80.75-26.1.67-.32,1.36-.64,2.03-.96.02,0,.04-.02.06-.03.49-.23.98-.47,1.47-.71.51-.25,1.02-.5,1.53-.75.72-.36,1.44-.72,2.17-1.09,40.62-20.76,75.17-55.35,93.56-96.98,4.92-11.12,8.57-21.82,11.56-33.64,4.04-15.96,6.23-30.55,6.52-47.11.28-16.61.43-34.15-3.35-50.29ZM202.92,299.32c-.04,10.76.13,42.37-.68,84.4-.08,4.06-.15,7.39-.2,9.55-15.1-22.74-26.89-41.42-34.76-54.11-9.31-15.03-11.21-18.53-29.77-48.88-9.1-14.88-18.25-29.5-27.25-44.32-11.12-18.33-22.4-36.7-33.6-55.03-2.99-4.9-5.85-9.97-8.9-14.81-.83-1.32-4.57-5.02-1.95-6.15,18.08-.39,36.25-.05,54.35-.15,10.09-.06,20.3-.34,30.41-.39,16.67-.09,33.35-.07,50.02-.08.87.08,2.04.29,2.27,1.28-.03,42.89.19,85.79.06,128.69ZM204.02,142.66c-.1.86-.55,1.41-1.32,1.77l-120.45-.11c-1.19-.55-5.42.33-5.83-1.06-.41-1.42.84-1.89,1.53-2.6,3.28-3.41,6.88-6.57,10.38-9.78,12.84-11.76,25.93-23.42,38.68-35.32.92-.87,1.61-2.35,2.99-2.77,23.61-.48,47.28.16,70.86-.48,1.47-.05,3.16-.05,3.37,1.81.07,12.85,0,25.73-.23,38.55-.06,3.08.36,7.06,0,9.99ZM412.79,277.65c-5.33,22.62-13.6,42.68-25.73,60.65-.57.85-12.26,17.75-28.62,32.34-45.39,40.51-112.71,50.77-130.52,53.1-.34-14.69-.53-26.36-.64-33.16-1.19-80.02-.15-153.94,0-183.88.07-11.78-.14-23.59.09-35.36.46-.92,1.28-1.5,2.28-1.7,17.99-.26,36.04.05,54.01.17,14.6.1,30.57-1.23,44.74,2.22,42.15,10.27,73.33,49.1,86.33,88.93,1.62,4.95-.77,11.7-1.95,16.68ZM416.03,205.88c-1.33.67-5.21-4.65-6.52-6.38-12.12-15.95-52.99-53.11-95.26-54.96-28.12-1.23-56.48.44-84.66-.21-1.45-.14-2.32-.8-2.32-2.33l-.22-47.66c.05-1.56,1.31-2.34,2.78-2.33,24.97.06,50.07-.03,75.08.05,22.84,6,44.99,18.72,63.17,33.65,22.44,18.43,32.72,38.15,34.96,42.33,8.67,16.17,15.37,36.63,12.98,37.83Z" style="fill: #09465b;"/>
  </g>
  <g>
    <path d="M592.87,128.8l64.66,174.33h-52.01l-12.73-35.89h-66.79l-12.95,35.89h-42.43l66.21-174.33h56.02ZM537.62,235.06h43.77l-21.69-61.17-22.08,61.17Z" style="fill: #09465b;"/>
    <path d="M819.75,193.68l-50.7,2.68c-.71-24.61-12.08-36.91-34.12-36.91-25.28,0-37.91,18.95-37.91,56.83,0,21.88,3.44,36.72,10.31,44.51s16.48,11.69,28.81,11.69c20.01,0,32.25-10.98,36.7-32.95l46.91,2.43c-3.03,20.86-12.23,36.72-27.62,47.57-15.39,10.86-34.23,16.28-56.52,16.28-27.34,0-49.56-7.96-66.66-23.88-17.1-15.92-25.65-37.93-25.65-66.03,0-26.31,8.27-47.85,24.82-64.62,16.54-16.77,39.14-25.16,67.79-25.16,49.64,0,77.58,22.52,83.84,67.56Z" style="fill: #09465b;"/>
    <path d="M927.13,128.8l64.66,174.33h-52l-12.73-35.89h-66.79l-12.95,35.89h-42.43l66.21-174.33h56.02ZM871.89,235.06h43.77l-21.69-61.17-22.08,61.17Z" style="fill: #09465b;"/>
    <path d="M994.21,128.8h63.05c25.7,0,44.86,3,57.45,9,12.6,6,23.89,15.5,33.87,28.48,9.98,12.99,14.97,29.4,14.97,49.23,0,24.95-8.72,45.79-26.16,62.52-17.44,16.73-41.48,25.1-72.12,25.1h-71.06v-174.33ZM1041.72,160.86v109.45h19.93c17.62,0,30.71-5.56,39.26-16.67,8.56-11.11,12.84-24.16,12.84-39.14,0-10.56-2.44-20.33-7.33-29.31-4.88-8.98-10.95-15.28-18.2-18.9-7.25-3.62-15.96-5.43-26.12-5.43h-20.39Z" style="fill: #09465b;"/>
    <path d="M1322.88,162.01h-98.36v35.76h77.33v32.82h-77.33v38.06h98.36v34.48h-147.55v-174.33h147.55v33.21Z" style="fill: #09465b;"/>
    <path d="M1423.62,303.13l-50.96-142.14v142.14h-40.56v-174.33h75.35l36.25,104.34,38.14-104.34h75.58v174.33h-48.73v-142.14l-51.96,142.14h-33.12Z" style="fill: #09465b;"/>
    <path d="M1727.82,128.8l-64.92,100.89v73.43h-48.27v-73.43l-64.92-100.89h56.14l39.38,66.01,39.2-66.01h43.39Z" style="fill: #09465b;"/>
  </g>
  <g>
    <path d="M474.32,364.75v-35.6h16.32c7.09,0,12.39,1.77,15.92,5.32,3.52,3.55,5.29,7.65,5.29,12.31,0,5.32-1.89,9.65-5.67,12.98-3.78,3.33-8.69,5-14.73,5h-17.12ZM487.27,356.56h3.37c2.14,0,3.95-.88,5.42-2.63,1.47-1.76,2.21-4.15,2.21-7.17,0-2.59-.65-4.83-1.96-6.7-1.31-1.88-3.2-2.82-5.67-2.82h-3.37v19.33Z" style="fill: #09465b;"/>
    <path d="M573.99,329.15v35.6h-12.95v-35.6h12.95Z" style="fill: #09465b;"/>
    <path d="M648.34,364.75l-2.38-7.02h-11.3l-2.53,7.02h-10.51l13.02-35.6h13.69l13.23,35.6h-13.21ZM636.86,349.96h6.83l-3.41-10.33-3.41,10.33Z" style="fill: #09465b;"/>
    <path d="M755.04,329.15v35.6h-12.02v-25.46l-7.8,25.46h-8.22l-8.11-25.46v25.46h-9.7v-35.6h16.92l6.12,18.91,5.84-18.91h16.98Z" style="fill: #09465b;"/>
    <path d="M824.36,365.3c-5.93,0-10.77-1.66-14.51-4.98s-5.61-7.76-5.61-13.33,1.79-9.71,5.36-13.18c3.57-3.47,8.53-5.2,14.88-5.2,5.87,0,10.66,1.63,14.35,4.9,3.7,3.27,5.55,7.63,5.55,13.09s-1.87,10.18-5.59,13.59c-3.73,3.41-8.54,5.11-14.43,5.11ZM824.3,357.21c2.18,0,3.75-.8,4.71-2.41s1.44-4.55,1.44-8.83c0-6.19-1.97-9.29-5.9-9.29-4.25,0-6.37,3.53-6.37,10.59,0,6.62,2.04,9.94,6.12,9.94Z" style="fill: #09465b;"/>
    <path d="M929.66,364.75h-10.54l-11.55-15.73c-1.48-2.02-2.98-4.47-4.49-7.35.68,2.29,1.02,4.24,1.02,5.84v17.24h-10.51v-35.6h12.24l9.83,13.04c1.96,2.59,3.44,4.87,4.45,6.83-.66-3.04-.99-6.16-.99-9.34v-10.54h10.54v35.6Z" style="fill: #09465b;"/>
    <path d="M980.75,364.75v-35.6h16.32c7.09,0,12.39,1.77,15.92,5.32,3.52,3.55,5.28,7.65,5.28,12.31,0,5.32-1.89,9.65-5.67,12.98-3.78,3.33-8.69,5-14.73,5h-17.12ZM993.69,356.56h3.37c2.14,0,3.95-.88,5.42-2.63,1.47-1.76,2.21-4.15,2.21-7.17,0-2.59-.66-4.83-1.96-6.7-1.31-1.88-3.2-2.82-5.67-2.82h-3.37v19.33Z" style="fill: #09465b;"/>
    <path d="M1097.17,336.98l-8.41,2.37c-1.13-2.82-3.53-4.23-7.18-4.23-3.91,0-5.86,1.07-5.86,3.21,0,.85.37,1.57,1.1,2.17s2.38,1.1,4.95,1.54c4.3.73,7.45,1.47,9.44,2.22,2,.75,3.68,1.95,5.05,3.61,1.37,1.66,2.05,3.52,2.05,5.57,0,3.22-1.47,6-4.4,8.34-2.93,2.35-7.28,3.52-13.05,3.52-4.32,0-8-.83-11.04-2.49-3.04-1.66-5.04-4.12-6-7.39l9.15-1.75c1.03,3.32,3.89,4.98,8.57,4.98,2.26,0,3.95-.37,5.06-1.11,1.11-.74,1.67-1.62,1.67-2.65s-.5-1.85-1.51-2.42c-1.01-.57-2.95-1.11-5.83-1.62-5.37-.94-9.2-2.22-11.48-3.85-2.28-1.62-3.42-4-3.42-7.13s1.36-5.83,4.09-8.01c2.73-2.17,6.43-3.26,11.1-3.26,8.27,0,13.59,2.79,15.96,8.37Z" style="fill: #09465b;"/>
    <path d="M1177.96,364.75h-5.4l-4.24-10.41h-15.65l-3.77,10.41h-4.42l13.71-35.6h5.98l13.8,35.6ZM1167.2,351.01l-6.54-17.11-6.53,17.11h13.06Z" style="fill: #09465b;"/>
    <path d="M1250.9,352.78l4.82.91c-2.31,7.86-7.52,11.79-15.64,11.79-5.34,0-9.52-1.82-12.56-5.46-3.04-3.64-4.56-8.11-4.56-13.42s1.59-9.88,4.76-13.21,7.43-4.98,12.76-4.98c7.91,0,12.99,3.82,15.24,11.45l-4.98.83c-1.81-5.67-5.24-8.5-10.29-8.5-3.73,0-6.62,1.32-8.67,3.95-2.05,2.63-3.08,6.33-3.08,11.1,0,4.36,1.05,7.86,3.15,10.5,2.1,2.63,4.88,3.95,8.34,3.95,5.38,0,8.94-2.97,10.69-8.92Z" style="fill: #09465b;"/>
    <path d="M1334.41,364.75h-5.4l-4.24-10.41h-15.65l-3.77,10.41h-4.42l13.71-35.6h5.98l13.8,35.6ZM1323.65,351.01l-6.54-17.11-6.53,17.11h13.06Z" style="fill: #09465b;"/>
    <path d="M1383.64,364.75v-35.6h14.15c5.95,0,10.59,1.71,13.91,5.14,3.32,3.42,4.98,7.62,4.98,12.57s-1.62,9.26-4.85,12.71c-3.24,3.45-7.33,5.18-12.3,5.18h-15.88ZM1388.92,360.97h8.56c4.53,0,7.97-1.32,10.32-3.96,2.35-2.64,3.52-6.13,3.52-10.46,0-3.51-1.12-6.67-3.35-9.47-2.24-2.8-5.73-4.2-10.49-4.2h-8.56v28.09Z" style="fill: #09465b;"/>
    <path d="M1495.61,360.84v3.91h-27.29v-35.6h26.7v3.91h-21.42v11.32h17v3.63h-17v12.83h22Z" style="fill: #09465b;"/>
    <path d="M1587.46,364.75h-5.13v-31.09l-13.69,31.09h-3.58l-13.84-31.09v31.09h-4.48v-35.6h7.82l12.74,28.47,12.44-28.47h7.72v35.6Z" style="fill: #09465b;"/>
    <path d="M1669.37,329.15l-14.12,20.63v14.97h-5.29v-14.97l-14.12-20.63h6.25l11.2,16.36,11.27-16.36h4.82Z" style="fill: #09465b;"/>
  </g>
</svg>